<mxfile host="app.diagrams.net" agent="Mozilla/5.0 (Windows NT 10.0; Win64; x64) AppleWebKit/537.36 (KHTML, like Gecko) Chrome/134.0.0.0 Safari/537.36" version="26.2.5">
  <diagram name="Page-1" id="lSY_Lr0GsyS2pZpwyObW">
    <mxGraphModel dx="1428" dy="785" grid="1" gridSize="10" guides="1" tooltips="1" connect="1" arrows="1" fold="1" page="1" pageScale="1" pageWidth="827" pageHeight="1169" math="0" shadow="0">
      <root>
        <mxCell id="0" />
        <mxCell id="1" parent="0" />
        <mxCell id="h14WyBg3Et-Y1gysAaSe-1" value="crm_sales_details" style="swimlane;fontStyle=0;childLayout=stackLayout;horizontal=1;startSize=30;horizontalStack=0;resizeParent=1;resizeParentMax=0;resizeLast=0;collapsible=1;marginBottom=0;whiteSpace=wrap;html=1;rounded=1;fillColor=#dae8fc;strokeColor=#6c8ebf;" vertex="1" parent="1">
          <mxGeometry x="90" y="430" width="140" height="90" as="geometry" />
        </mxCell>
        <mxCell id="h14WyBg3Et-Y1gysAaSe-2" value="cust_id" style="text;strokeColor=none;fillColor=none;align=left;verticalAlign=middle;spacingLeft=4;spacingRight=4;overflow=hidden;points=[[0,0.5],[1,0.5]];portConstraint=eastwest;rotatable=0;whiteSpace=wrap;html=1;" vertex="1" parent="h14WyBg3Et-Y1gysAaSe-1">
          <mxGeometry y="30" width="140" height="30" as="geometry" />
        </mxCell>
        <mxCell id="h14WyBg3Et-Y1gysAaSe-3" value="prd_key" style="text;strokeColor=none;fillColor=none;align=left;verticalAlign=middle;spacingLeft=4;spacingRight=4;overflow=hidden;points=[[0,0.5],[1,0.5]];portConstraint=eastwest;rotatable=0;whiteSpace=wrap;html=1;" vertex="1" parent="h14WyBg3Et-Y1gysAaSe-1">
          <mxGeometry y="60" width="140" height="30" as="geometry" />
        </mxCell>
        <mxCell id="h14WyBg3Et-Y1gysAaSe-5" value="sales details" style="text;html=1;align=center;verticalAlign=middle;whiteSpace=wrap;rounded=0;" vertex="1" parent="1">
          <mxGeometry x="110" y="398" width="90" height="30" as="geometry" />
        </mxCell>
        <mxCell id="h14WyBg3Et-Y1gysAaSe-6" value="Customer Information" style="text;html=1;align=center;verticalAlign=middle;whiteSpace=wrap;rounded=0;" vertex="1" parent="1">
          <mxGeometry x="310" y="328" width="90" height="30" as="geometry" />
        </mxCell>
        <mxCell id="h14WyBg3Et-Y1gysAaSe-7" value="crm_cust_info" style="swimlane;fontStyle=0;childLayout=stackLayout;horizontal=1;startSize=30;horizontalStack=0;resizeParent=1;resizeParentMax=0;resizeLast=0;collapsible=1;marginBottom=0;whiteSpace=wrap;html=1;rounded=1;fillColor=#dae8fc;strokeColor=#6c8ebf;" vertex="1" parent="1">
          <mxGeometry x="290" y="360" width="140" height="90" as="geometry" />
        </mxCell>
        <mxCell id="h14WyBg3Et-Y1gysAaSe-8" value="cust_id" style="text;strokeColor=none;fillColor=none;align=left;verticalAlign=middle;spacingLeft=4;spacingRight=4;overflow=hidden;points=[[0,0.5],[1,0.5]];portConstraint=eastwest;rotatable=0;whiteSpace=wrap;html=1;" vertex="1" parent="h14WyBg3Et-Y1gysAaSe-7">
          <mxGeometry y="30" width="140" height="30" as="geometry" />
        </mxCell>
        <mxCell id="h14WyBg3Et-Y1gysAaSe-20" value="cust_key" style="text;strokeColor=none;fillColor=none;align=left;verticalAlign=middle;spacingLeft=4;spacingRight=4;overflow=hidden;points=[[0,0.5],[1,0.5]];portConstraint=eastwest;rotatable=0;whiteSpace=wrap;html=1;" vertex="1" parent="h14WyBg3Et-Y1gysAaSe-7">
          <mxGeometry y="60" width="140" height="30" as="geometry" />
        </mxCell>
        <mxCell id="h14WyBg3Et-Y1gysAaSe-10" value="Current &amp;amp; History Product info" style="text;html=1;align=center;verticalAlign=middle;whiteSpace=wrap;rounded=0;" vertex="1" parent="1">
          <mxGeometry x="290" y="478" width="130" height="30" as="geometry" />
        </mxCell>
        <mxCell id="h14WyBg3Et-Y1gysAaSe-11" value="crm_prd_info" style="swimlane;fontStyle=0;childLayout=stackLayout;horizontal=1;startSize=30;horizontalStack=0;resizeParent=1;resizeParentMax=0;resizeLast=0;collapsible=1;marginBottom=0;whiteSpace=wrap;html=1;rounded=1;fillColor=#dae8fc;strokeColor=#6c8ebf;" vertex="1" parent="1">
          <mxGeometry x="285" y="510" width="140" height="60" as="geometry" />
        </mxCell>
        <mxCell id="h14WyBg3Et-Y1gysAaSe-12" value="prd_key" style="text;strokeColor=none;fillColor=none;align=left;verticalAlign=middle;spacingLeft=4;spacingRight=4;overflow=hidden;points=[[0,0.5],[1,0.5]];portConstraint=eastwest;rotatable=0;whiteSpace=wrap;html=1;" vertex="1" parent="h14WyBg3Et-Y1gysAaSe-11">
          <mxGeometry y="30" width="140" height="30" as="geometry" />
        </mxCell>
        <mxCell id="h14WyBg3Et-Y1gysAaSe-14" style="edgeStyle=orthogonalEdgeStyle;rounded=0;orthogonalLoop=1;jettySize=auto;html=1;entryX=1;entryY=0.5;entryDx=0;entryDy=0;" edge="1" parent="1" source="h14WyBg3Et-Y1gysAaSe-8" target="h14WyBg3Et-Y1gysAaSe-2">
          <mxGeometry relative="1" as="geometry" />
        </mxCell>
        <mxCell id="h14WyBg3Et-Y1gysAaSe-15" style="edgeStyle=orthogonalEdgeStyle;rounded=0;orthogonalLoop=1;jettySize=auto;html=1;entryX=1.029;entryY=0.2;entryDx=0;entryDy=0;entryPerimeter=0;" edge="1" parent="1" source="h14WyBg3Et-Y1gysAaSe-12" target="h14WyBg3Et-Y1gysAaSe-3">
          <mxGeometry relative="1" as="geometry" />
        </mxCell>
        <mxCell id="h14WyBg3Et-Y1gysAaSe-21" style="edgeStyle=orthogonalEdgeStyle;rounded=0;orthogonalLoop=1;jettySize=auto;html=1;entryX=1;entryY=0.5;entryDx=0;entryDy=0;" edge="1" parent="1" source="h14WyBg3Et-Y1gysAaSe-17" target="h14WyBg3Et-Y1gysAaSe-20">
          <mxGeometry relative="1" as="geometry" />
        </mxCell>
        <mxCell id="h14WyBg3Et-Y1gysAaSe-17" value="erp_cust_az12" style="swimlane;fontStyle=0;childLayout=stackLayout;horizontal=1;startSize=30;horizontalStack=0;resizeParent=1;resizeParentMax=0;resizeLast=0;collapsible=1;marginBottom=0;whiteSpace=wrap;html=1;rounded=1;fillColor=#ffe6cc;strokeColor=#d79b00;" vertex="1" parent="1">
          <mxGeometry x="690" y="405" width="140" height="60" as="geometry" />
        </mxCell>
        <mxCell id="h14WyBg3Et-Y1gysAaSe-18" value="cid" style="text;strokeColor=none;fillColor=none;align=left;verticalAlign=middle;spacingLeft=4;spacingRight=4;overflow=hidden;points=[[0,0.5],[1,0.5]];portConstraint=eastwest;rotatable=0;whiteSpace=wrap;html=1;" vertex="1" parent="h14WyBg3Et-Y1gysAaSe-17">
          <mxGeometry y="30" width="140" height="30" as="geometry" />
        </mxCell>
        <mxCell id="h14WyBg3Et-Y1gysAaSe-26" value="" style="edgeStyle=orthogonalEdgeStyle;rounded=0;orthogonalLoop=1;jettySize=auto;html=1;" edge="1" parent="1" source="h14WyBg3Et-Y1gysAaSe-19" target="h14WyBg3Et-Y1gysAaSe-22">
          <mxGeometry relative="1" as="geometry" />
        </mxCell>
        <mxCell id="h14WyBg3Et-Y1gysAaSe-19" value="Customer Information(birthday)" style="text;html=1;align=center;verticalAlign=middle;whiteSpace=wrap;rounded=0;" vertex="1" parent="1">
          <mxGeometry x="715" y="368" width="90" height="30" as="geometry" />
        </mxCell>
        <mxCell id="h14WyBg3Et-Y1gysAaSe-22" value="Customer Information(location)" style="text;html=1;align=center;verticalAlign=middle;whiteSpace=wrap;rounded=0;" vertex="1" parent="1">
          <mxGeometry x="705" y="258" width="90" height="30" as="geometry" />
        </mxCell>
        <mxCell id="h14WyBg3Et-Y1gysAaSe-23" value="erp_loc_a101" style="swimlane;fontStyle=0;childLayout=stackLayout;horizontal=1;startSize=30;horizontalStack=0;resizeParent=1;resizeParentMax=0;resizeLast=0;collapsible=1;marginBottom=0;whiteSpace=wrap;html=1;rounded=1;fillColor=#ffe6cc;strokeColor=#d79b00;" vertex="1" parent="1">
          <mxGeometry x="690" y="300" width="140" height="60" as="geometry" />
        </mxCell>
        <mxCell id="h14WyBg3Et-Y1gysAaSe-24" value="cid" style="text;strokeColor=none;fillColor=none;align=left;verticalAlign=middle;spacingLeft=4;spacingRight=4;overflow=hidden;points=[[0,0.5],[1,0.5]];portConstraint=eastwest;rotatable=0;whiteSpace=wrap;html=1;" vertex="1" parent="h14WyBg3Et-Y1gysAaSe-23">
          <mxGeometry y="30" width="140" height="30" as="geometry" />
        </mxCell>
        <mxCell id="h14WyBg3Et-Y1gysAaSe-25" style="edgeStyle=orthogonalEdgeStyle;rounded=0;orthogonalLoop=1;jettySize=auto;html=1;entryX=1;entryY=0.5;entryDx=0;entryDy=0;" edge="1" parent="1" source="h14WyBg3Et-Y1gysAaSe-24" target="h14WyBg3Et-Y1gysAaSe-20">
          <mxGeometry relative="1" as="geometry" />
        </mxCell>
        <mxCell id="h14WyBg3Et-Y1gysAaSe-27" value="erp_px_cat_g1v2" style="swimlane;fontStyle=0;childLayout=stackLayout;horizontal=1;startSize=30;horizontalStack=0;resizeParent=1;resizeParentMax=0;resizeLast=0;collapsible=1;marginBottom=0;whiteSpace=wrap;html=1;rounded=1;fillColor=#ffe6cc;strokeColor=#d79b00;" vertex="1" parent="1">
          <mxGeometry x="690" y="545" width="140" height="60" as="geometry" />
        </mxCell>
        <mxCell id="h14WyBg3Et-Y1gysAaSe-28" value="id" style="text;strokeColor=none;fillColor=none;align=left;verticalAlign=middle;spacingLeft=4;spacingRight=4;overflow=hidden;points=[[0,0.5],[1,0.5]];portConstraint=eastwest;rotatable=0;whiteSpace=wrap;html=1;" vertex="1" parent="h14WyBg3Et-Y1gysAaSe-27">
          <mxGeometry y="30" width="140" height="30" as="geometry" />
        </mxCell>
        <mxCell id="h14WyBg3Et-Y1gysAaSe-29" value="Category information" style="text;html=1;align=center;verticalAlign=middle;whiteSpace=wrap;rounded=0;" vertex="1" parent="1">
          <mxGeometry x="715" y="508" width="90" height="30" as="geometry" />
        </mxCell>
        <mxCell id="h14WyBg3Et-Y1gysAaSe-30" style="edgeStyle=orthogonalEdgeStyle;rounded=0;orthogonalLoop=1;jettySize=auto;html=1;entryX=1;entryY=0.5;entryDx=0;entryDy=0;" edge="1" parent="1" source="h14WyBg3Et-Y1gysAaSe-28" target="h14WyBg3Et-Y1gysAaSe-12">
          <mxGeometry relative="1" as="geometry" />
        </mxCell>
        <mxCell id="h14WyBg3Et-Y1gysAaSe-33" value="" style="rounded=0;whiteSpace=wrap;html=1;fillColor=none;" vertex="1" parent="1">
          <mxGeometry x="80" y="250" width="430" height="398" as="geometry" />
        </mxCell>
        <mxCell id="h14WyBg3Et-Y1gysAaSe-34" value="" style="rounded=0;whiteSpace=wrap;html=1;fillColor=none;" vertex="1" parent="1">
          <mxGeometry x="610" y="250" width="310" height="398" as="geometry" />
        </mxCell>
        <mxCell id="h14WyBg3Et-Y1gysAaSe-35" value="CRM" style="rounded=0;whiteSpace=wrap;html=1;fillColor=#dae8fc;strokeColor=#6c8ebf;" vertex="1" parent="1">
          <mxGeometry x="215" y="218" width="95" height="40" as="geometry" />
        </mxCell>
        <mxCell id="h14WyBg3Et-Y1gysAaSe-36" value="ERP" style="rounded=0;whiteSpace=wrap;html=1;fillColor=#dae8fc;strokeColor=#6c8ebf;" vertex="1" parent="1">
          <mxGeometry x="710" y="218" width="95" height="40" as="geometry" />
        </mxCell>
        <mxCell id="h14WyBg3Et-Y1gysAaSe-37" value="Intergration Model" style="text;html=1;align=left;verticalAlign=middle;whiteSpace=wrap;rounded=0;fontSize=29;fontStyle=1" vertex="1" parent="1">
          <mxGeometry x="80" y="60" width="450" height="30" as="geometry" />
        </mxCell>
        <mxCell id="h14WyBg3Et-Y1gysAaSe-38" value="(how to tables are related)" style="text;html=1;align=center;verticalAlign=middle;whiteSpace=wrap;rounded=0;" vertex="1" parent="1">
          <mxGeometry x="329" y="60" width="170" height="30" as="geometry" />
        </mxCell>
      </root>
    </mxGraphModel>
  </diagram>
</mxfile>
